<svg width="170" height="120" viewBox="0 0 170 120" fill="none" xmlns="http://www.w3.org/2000/svg">
<g clip-path="url(#clip0_65_414)">
<path d="M116.755 101.739C140.029 78.4646 140.029 40.7298 116.755 17.4557C93.4806 -5.81844 55.7458 -5.81846 32.4716 17.4557C9.19751 40.7298 9.1975 78.4647 32.4716 101.739C55.7458 125.013 93.4806 125.013 116.755 101.739Z" fill="#204E84"/>
<path opacity="0.3" d="M58.0979 32.4992C47.4083 41.4531 35.5192 44.8893 31.5856 40.1689C27.6519 35.4486 33.092 24.3638 43.7816 15.41C54.4712 6.45611 66.3603 3.01991 70.2975 7.73674C74.2346 12.4536 68.7875 23.5418 58.0979 32.4992Z" fill="#0BD6D6"/>
<path opacity="0.3" d="M52.7432 92.069C60.0358 86.9531 59.4556 73.5515 51.4473 62.1355C43.4389 50.7196 31.0349 45.6124 23.7422 50.7282C16.4496 55.8441 17.0297 69.2458 25.0381 80.6618C33.0465 92.0777 45.4505 97.1849 52.7432 92.069Z" fill="#0BD6D6"/>
<path opacity="0.1" d="M100.825 75.0248C110.35 63.1639 123.05 57.544 129.196 62.476C135.342 67.408 132.579 81.0187 123.047 92.8831C113.515 104.748 100.821 110.364 94.679 105.432C88.5368 100.5 91.2957 86.8927 100.825 75.0248Z" fill="#0BD6D6"/>
<path opacity="0.3" d="M54.0584 79.9851C60.8073 89.6022 63.0405 99.6744 59.0504 102.476C55.0603 105.277 46.3499 99.745 39.601 90.1278C32.8521 80.5107 30.6153 70.435 34.609 67.6338C38.6026 64.8326 47.2989 70.3644 54.0584 79.9851Z" fill="#0BD6D6"/>
<path opacity="0.3" d="M53.7056 47.2601C50.2341 58.4895 43.6475 66.4238 38.9871 64.9879C34.3267 63.552 33.3424 53.2787 36.8315 42.0564C40.3206 30.8341 46.8861 22.8927 51.5465 24.3321C56.2069 25.7715 57.1594 36.0342 53.7056 47.2601Z" fill="#0BD6D6"/>
<path opacity="0.3" d="M80.8353 30.9787C66.9247 31.9524 55.3002 27.7647 54.8698 21.6226C54.4394 15.4805 65.3689 9.71589 79.2795 8.73866C93.1901 7.76142 104.818 11.9526 105.249 18.0947C105.679 24.2368 94.7495 30.005 80.8353 30.9787Z" fill="#0BD6D6"/>
<path d="M17.7207 77.3673C17.7207 77.3673 2.73413 88.4803 6.46667 94.0438C10.1992 99.6073 47.1718 94.005 89.1223 69.0308C134.805 41.8341 156.114 20.6983 151.693 16.4154C145.117 10.0158 120.052 21.2134 120.052 21.2134L118.64 19.6152C118.64 19.6152 153.92 6.1527 165.745 13.392C174.456 18.7262 175.623 39.4633 112.064 75.4305C64.9596 102.091 15.3641 109.736 1.8557 100.831C-6.58661 95.275 16.9728 74.7002 16.9728 74.7002L17.7207 77.3673Z" fill="#10FCF5"/>
<path d="M8.13892 98.4397C8.13892 98.4397 25.3164 100.976 51.3313 91.3839C68.664 84.9842 92.5762 74.5345 107.591 65.3866C136.255 47.9233 155.853 22.5928 157.451 18.0595C159.049 13.5261 150.519 12.3266 150.519 12.3266C150.519 12.3266 165.05 11.1271 162.383 18.8603C159.716 26.5935 151.186 40.9874 112.393 65.7817C80.8741 85.9297 55.1979 94.7107 24.4026 99.2441C15.1559 100.599 8.13892 98.4397 8.13892 98.4397Z" fill="white"/>
<path d="M76.2631 89.2389C76.2631 89.2389 128.522 64.0424 147.855 42.3175C160.598 27.9905 162.92 22.053 163.851 19.3859C164.782 16.7188 162.517 13.6531 162.517 13.6531C162.517 13.6531 166.966 16.052 166.119 20.4514C164.652 28.0505 153.066 44.4413 131.722 59.1139C107.648 75.6599 76.2631 89.2389 76.2631 89.2389Z" fill="#FBFF69"/>
</g>
<defs>
<clipPath id="clip0_65_414">
<rect width="170" height="119.198" fill="white"/>
</clipPath>
</defs>
</svg>
